<svg preserveAspectRatio="none" width="100%" height="100%" overflow="visible" style="display: block;" viewBox="0 0 166.667 166.667" fill="none" xmlns="http://www.w3.org/2000/svg">
<g id="Decorative Subtle Seal" opacity="0.05">
<path id="Icon" d="M50 133.333L83.3333 107.917L116.667 133.333L104.167 92.0833L137.5 68.3333H96.6667L83.3333 25L70 68.3333H29.1667L62.5 92.0833L50 133.333V133.333M83.3333 166.667C71.8056 166.667 60.9722 164.479 50.8333 160.104C40.6944 155.729 31.875 149.792 24.375 142.292C16.875 134.792 10.9375 125.972 6.5625 115.833C2.1875 105.694 0 94.8611 0 83.3333C0 71.8056 2.1875 60.9722 6.5625 50.8333C10.9375 40.6944 16.875 31.875 24.375 24.375C31.875 16.875 40.6944 10.9375 50.8333 6.5625C60.9722 2.1875 71.8056 0 83.3333 0C94.8611 0 105.694 2.1875 115.833 6.5625C125.972 10.9375 134.792 16.875 142.292 24.375C149.792 31.875 155.729 40.6944 160.104 50.8333C164.479 60.9722 166.667 71.8056 166.667 83.3333C166.667 94.8611 164.479 105.694 160.104 115.833C155.729 125.972 149.792 134.792 142.292 142.292C134.792 149.792 125.972 155.729 115.833 160.104C105.694 164.479 94.8611 166.667 83.3333 166.667V166.667" fill="var(--fill-0, #E5E2E1)"/>
</g>
</svg>
