<svg preserveAspectRatio="none" width="100%" height="100%" overflow="visible" style="display: block;" viewBox="0 0 85.3333 112" fill="none" xmlns="http://www.w3.org/2000/svg">
<g id="Container" opacity="0.1">
<path id="Icon" d="M30.2667 62.4L34.9333 47.2L22.6667 37.3333H37.8667L42.6667 22.4L47.4667 37.3333H62.6667L50.2667 47.2L54.9333 62.4L42.6667 52.9333L30.2667 62.4V62.4M10.6667 112V70.8C7.28889 67.0667 4.66667 62.8 2.8 58C0.933333 53.2 0 48.0889 0 42.6667C0 30.7556 4.13333 20.6667 12.4 12.4C20.6667 4.13333 30.7556 0 42.6667 0C54.5778 0 64.6667 4.13333 72.9333 12.4C81.2 20.6667 85.3333 30.7556 85.3333 42.6667C85.3333 48.0889 84.4 53.2 82.5333 58C80.6667 62.8 78.0444 67.0667 74.6667 70.8V112L42.6667 101.333L10.6667 112V112M42.6667 74.6667C51.5556 74.6667 59.1111 71.5556 65.3333 65.3333C71.5556 59.1111 74.6667 51.5556 74.6667 42.6667C74.6667 33.7778 71.5556 26.2222 65.3333 20C59.1111 13.7778 51.5556 10.6667 42.6667 10.6667C33.7778 10.6667 26.2222 13.7778 20 20C13.7778 26.2222 10.6667 33.7778 10.6667 42.6667C10.6667 51.5556 13.7778 59.1111 20 65.3333C26.2222 71.5556 33.7778 74.6667 42.6667 74.6667V74.6667M21.3333 96.1333L42.6667 90.6667L64 96.1333V79.6C60.8889 81.3778 57.5333 82.7778 53.9333 83.8C50.3333 84.8222 46.5778 85.3333 42.6667 85.3333C38.7556 85.3333 35 84.8222 31.4 83.8C27.8 82.7778 24.4444 81.3778 21.3333 79.6V96.1333V96.1333M42.6667 87.8667V87.8667V87.8667V87.8667V87.8667V87.8667V87.8667V87.8667V87.8667V87.8667" fill="var(--fill-0, #F7BD48)"/>
</g>
</svg>
