<svg preserveAspectRatio="none" width="100%" height="100%" overflow="visible" style="display: block;" viewBox="0 0 106.667 85.3333" fill="none" xmlns="http://www.w3.org/2000/svg">
<g id="Container" opacity="0.05">
<path id="Icon" d="M53.3333 69.3333C54.8444 69.3333 56.1111 68.8222 57.1333 67.8C58.1556 66.7778 58.6667 65.5111 58.6667 64C58.6667 62.4889 58.1556 61.2222 57.1333 60.2C56.1111 59.1778 54.8444 58.6667 53.3333 58.6667C51.8222 58.6667 50.5556 59.1778 49.5333 60.2C48.5111 61.2222 48 62.4889 48 64C48 65.5111 48.5111 66.7778 49.5333 67.8C50.5556 68.8222 51.8222 69.3333 53.3333 69.3333V69.3333M53.3333 48C54.8444 48 56.1111 47.4889 57.1333 46.4667C58.1556 45.4444 58.6667 44.1778 58.6667 42.6667C58.6667 41.1556 58.1556 39.8889 57.1333 38.8667C56.1111 37.8444 54.8444 37.3333 53.3333 37.3333C51.8222 37.3333 50.5556 37.8444 49.5333 38.8667C48.5111 39.8889 48 41.1556 48 42.6667C48 44.1778 48.5111 45.4444 49.5333 46.4667C50.5556 47.4889 51.8222 48 53.3333 48V48M53.3333 26.6667C54.8444 26.6667 56.1111 26.1556 57.1333 25.1333C58.1556 24.1111 58.6667 22.8444 58.6667 21.3333C58.6667 19.8222 58.1556 18.5556 57.1333 17.5333C56.1111 16.5111 54.8444 16 53.3333 16C51.8222 16 50.5556 16.5111 49.5333 17.5333C48.5111 18.5556 48 19.8222 48 21.3333C48 22.8444 48.5111 24.1111 49.5333 25.1333C50.5556 26.1556 51.8222 26.6667 53.3333 26.6667V26.6667M96 85.3333H10.6667C7.73333 85.3333 5.22222 84.2889 3.13333 82.2C1.04444 80.1111 0 77.6 0 74.6667V53.3333C2.93333 53.3333 5.44444 52.2889 7.53333 50.2C9.62222 48.1111 10.6667 45.6 10.6667 42.6667C10.6667 39.7333 9.62222 37.2222 7.53333 35.1333C5.44444 33.0444 2.93333 32 0 32V10.6667C0 7.73333 1.04444 5.22222 3.13333 3.13333C5.22222 1.04444 7.73333 0 10.6667 0H96C98.9333 0 101.444 1.04444 103.533 3.13333C105.622 5.22222 106.667 7.73333 106.667 10.6667V32C103.733 32 101.222 33.0444 99.1333 35.1333C97.0444 37.2222 96 39.7333 96 42.6667C96 45.6 97.0444 48.1111 99.1333 50.2C101.222 52.2889 103.733 53.3333 106.667 53.3333V74.6667C106.667 77.6 105.622 80.1111 103.533 82.2C101.444 84.2889 98.9333 85.3333 96 85.3333V85.3333M96 74.6667V74.6667V74.6667V61.0667C92.7111 59.1111 90.1111 56.5111 88.2 53.2667C86.2889 50.0222 85.3333 46.4889 85.3333 42.6667C85.3333 38.8444 86.2889 35.3111 88.2 32.0667C90.1111 28.8222 92.7111 26.2222 96 24.2667V10.6667V10.6667V10.6667H10.6667V10.6667V10.6667V24.2667C13.9556 26.2222 16.5556 28.8222 18.4667 32.0667C20.3778 35.3111 21.3333 38.8444 21.3333 42.6667C21.3333 46.4889 20.3778 50.0222 18.4667 53.2667C16.5556 56.5111 13.9556 59.1111 10.6667 61.0667V74.6667V74.6667V74.6667H96V74.6667M53.3333 42.6667V42.6667V42.6667V42.6667V42.6667V42.6667V42.6667V42.6667V42.6667V42.6667V42.6667V42.6667V42.6667V42.6667V42.6667V42.6667V42.6667V42.6667V42.6667V42.6667V42.6667V42.6667V42.6667V42.6667" fill="var(--fill-0, #E5E2E1)"/>
</g>
</svg>
