<svg preserveAspectRatio="none" width="100%" height="100%" overflow="visible" style="display: block;" viewBox="0 0 80 106.667" fill="none" xmlns="http://www.w3.org/2000/svg">
<g id="Container" opacity="0.05">
<path id="Icon" d="M16 106.667V57.8667C11.4667 56.6222 7.66667 54.1333 4.6 50.4C1.53333 46.6667 0 42.3111 0 37.3333V0H10.6667V37.3333H16V0H26.6667V37.3333H32V0H42.6667V37.3333C42.6667 42.3111 41.1333 46.6667 38.0667 50.4C35 54.1333 31.2 56.6222 26.6667 57.8667V106.667H16V106.667M69.3333 106.667V64H53.3333V26.6667C53.3333 19.2889 55.9333 13 61.1333 7.8C66.3333 2.6 72.6222 0 80 0V106.667H69.3333V106.667" fill="var(--fill-0, #E5E2E1)"/>
</g>
</svg>
