<svg preserveAspectRatio="none" width="100%" height="100%" overflow="visible" style="display: block;" viewBox="0 0 22.5 22.5625" fill="none" xmlns="http://www.w3.org/2000/svg">
<path id="Icon" d="M20 11.25C20 8.8125 19.151 6.74479 17.4531 5.04688C15.7552 3.34896 13.6875 2.5 11.25 2.5V0C12.8125 0 14.276 0.296875 15.6406 0.890625C17.0052 1.48438 18.1927 2.28646 19.2031 3.29688C20.2135 4.30729 21.0156 5.49479 21.6094 6.85938C22.2031 8.22396 22.5 9.6875 22.5 11.25H20V11.25M15 11.25C15 10.2083 14.6354 9.32292 13.9062 8.59375C13.1771 7.86458 12.2917 7.5 11.25 7.5V5C12.9792 5 14.4531 5.60938 15.6719 6.82812C16.8906 8.04688 17.5 9.52083 17.5 11.25H15V11.25M21.1875 22.5625C18.5833 22.5625 16.0104 21.9948 13.4688 20.8594C10.9271 19.724 8.61458 18.1146 6.53125 16.0312C4.44792 13.9479 2.83854 11.6354 1.70312 9.09375C0.567708 6.55208 0 3.97917 0 1.375C0 1 0.125 0.6875 0.375 0.4375C0.625 0.1875 0.9375 0.0625 1.3125 0.0625H6.375C6.66667 0.0625 6.92708 0.161458 7.15625 0.359375C7.38542 0.557292 7.52083 0.791667 7.5625 1.0625L8.375 5.4375C8.41667 5.77083 8.40625 6.05208 8.34375 6.28125C8.28125 6.51042 8.16667 6.70833 8 6.875L4.96875 9.9375C5.38542 10.7083 5.88021 11.4531 6.45312 12.1719C7.02604 12.8906 7.65625 13.5833 8.34375 14.25C8.98958 14.8958 9.66667 15.4948 10.375 16.0469C11.0833 16.599 11.8333 17.1042 12.625 17.5625L15.5625 14.625C15.75 14.4375 15.9948 14.2969 16.2969 14.2031C16.599 14.1094 16.8958 14.0833 17.1875 14.125L21.5 15C21.7917 15.0833 22.0312 15.2344 22.2188 15.4531C22.4062 15.6719 22.5 15.9167 22.5 16.1875V21.25C22.5 21.625 22.375 21.9375 22.125 22.1875C21.875 22.4375 21.5625 22.5625 21.1875 22.5625V22.5625" fill="var(--fill-0, #F7BD48)"/>
</svg>
