<svg preserveAspectRatio="none" width="100%" height="100%" overflow="visible" style="display: block;" viewBox="0 0 38 28" fill="none" xmlns="http://www.w3.org/2000/svg">
<g id="Overlay">
<rect width="38" height="28" rx="12" fill="var(--fill-0, #F7BD48)" fill-opacity="0.1"/>
<path id="Icon" d="M14 17C14.8333 17 15.5417 16.7083 16.125 16.125C16.7083 15.5417 17 14.8333 17 14C17 13.1667 16.7083 12.4583 16.125 11.875C15.5417 11.2917 14.8333 11 14 11C13.1667 11 12.4583 11.2917 11.875 11.875C11.2917 12.4583 11 13.1667 11 14C11 14.8333 11.2917 15.5417 11.875 16.125C12.4583 16.7083 13.1667 17 14 17V17M14 20C12.3333 20 10.9167 19.4167 9.75 18.25C8.58333 17.0833 8 15.6667 8 14C8 12.3333 8.58333 10.9167 9.75 9.75C10.9167 8.58333 12.3333 8 14 8C15.35 8 16.5292 8.38333 17.5375 9.15C18.5458 9.91667 19.25 10.8667 19.65 12H28.025L30 13.975L26.5 17.975L24 16L22 18L20 16H19.65C19.2333 17.2 18.5083 18.1667 17.475 18.9C16.4417 19.6333 15.2833 20 14 20V20" fill="var(--fill-0, #F7BD48)"/>
</g>
</svg>
