<svg preserveAspectRatio="none" width="100%" height="100%" overflow="visible" style="display: block;" viewBox="0 0 15.8333 15.8333" fill="none" xmlns="http://www.w3.org/2000/svg">
<g id="Container">
<path id="Icon" d="M7.36856 5.5128H14.1314C13.7617 4.54378 13.1848 3.69949 12.4006 2.97994C11.6164 2.26039 10.719 1.76706 9.7083 1.49997L7.36856 5.5128V5.5128M5.54805 7.17946L8.94549 1.3333C8.79271 1.30553 8.62124 1.28469 8.43106 1.2708C8.24089 1.25691 8.06941 1.24997 7.91664 1.24997C6.99997 1.24997 6.1458 1.42358 5.35414 1.7708C4.56247 2.11803 3.86108 2.5833 3.24997 3.16664L5.54805 7.17946V7.17946M1.4583 9.5833H6.09613L2.73074 3.75317C2.26493 4.33864 1.90168 4.98047 1.641 5.67865C1.38031 6.37684 1.24997 7.12283 1.24997 7.91664C1.24997 8.2083 1.26733 8.48955 1.30205 8.76039C1.33678 9.03122 1.38886 9.30552 1.4583 9.5833V9.5833M6.141 14.3333L8.4551 10.3205H1.70189C2.07155 11.2895 2.65114 12.1338 3.44067 12.8533C4.2302 13.5729 5.13031 14.0662 6.141 14.3333V14.3333M7.91664 14.5833C8.8333 14.5833 9.68747 14.4097 10.4791 14.0625C11.2708 13.7152 11.9722 13.25 12.5833 12.6666L10.2852 8.65381L6.90381 14.4839C7.05659 14.5171 7.22192 14.5419 7.39981 14.5585C7.57769 14.575 7.74997 14.5833 7.91664 14.5833V14.5833M13.1025 12.0801C13.547 11.5107 13.9049 10.8688 14.1762 10.1546C14.4476 9.44041 14.5833 8.69441 14.5833 7.91664C14.5833 7.62497 14.5659 7.34372 14.5312 7.07289C14.4965 6.80205 14.4444 6.52775 14.375 6.24997H9.73714L13.1025 12.0801V12.0801M7.91664 7.91664V7.91664V7.91664V7.91664V7.91664V7.91664V7.91664V7.91664V7.91664V7.91664V7.91664V7.91664V7.91664V7.91664V7.91664V7.91664V7.91664V7.91664M7.91664 15.8333C6.83117 15.8333 5.80687 15.6252 4.84373 15.2091C3.88059 14.7929 3.04059 14.2264 2.32371 13.5096C1.60683 12.7927 1.04033 11.9527 0.624196 10.9895C0.208065 10.0264 0 9.0021 0 7.91664C0 6.82262 0.208065 5.79618 0.624196 4.83732C1.04033 3.87846 1.60683 3.04059 2.32371 2.32371C3.04059 1.60683 3.88059 1.04033 4.84373 0.624196C5.80687 0.208065 6.83117 0 7.91664 0C9.01065 0 10.0371 0.208065 10.996 0.624196C11.9548 1.04033 12.7927 1.60683 13.5096 2.32371C14.2264 3.04059 14.7929 3.87846 15.2091 4.83732C15.6252 5.79618 15.8333 6.82262 15.8333 7.91664C15.8333 9.0021 15.6252 10.0264 15.2091 10.9895C14.7929 11.9527 14.2264 12.7927 13.5096 13.5096C12.7927 14.2264 11.9548 14.7929 10.996 15.2091C10.0371 15.6252 9.01065 15.8333 7.91664 15.8333V15.8333" fill="var(--fill-0, #D3C4AF)"/>
</g>
</svg>
