<svg preserveAspectRatio="none" width="100%" height="100%" overflow="visible" style="display: block;" viewBox="0 0 96 48" fill="none" xmlns="http://www.w3.org/2000/svg">
<g id="Container" opacity="0.1">
<path id="Icon" d="M0 48V41.7C0 38.8333 1.46667 36.5 4.4 34.7C7.33333 32.9 11.2 32 16 32C16.8667 32 17.7 32.0167 18.5 32.05C19.3 32.0833 20.0667 32.1667 20.8 32.3C19.8667 33.7 19.1667 35.1667 18.7 36.7C18.2333 38.2333 18 39.8333 18 41.5V48H0V48M24 48V41.5C24 39.3667 24.5833 37.4167 25.75 35.65C26.9167 33.8833 28.5667 32.3333 30.7 31C32.8333 29.6667 35.3833 28.6667 38.35 28C41.3167 27.3333 44.5333 27 48 27C51.5333 27 54.7833 27.3333 57.75 28C60.7167 28.6667 63.2667 29.6667 65.4 31C67.5333 32.3333 69.1667 33.8833 70.3 35.65C71.4333 37.4167 72 39.3667 72 41.5V48H24V48M78 48V41.5C78 39.7667 77.7833 38.1333 77.35 36.6C76.9167 35.0667 76.2667 33.6333 75.4 32.3C76.1333 32.1667 76.8833 32.0833 77.65 32.05C78.4167 32.0167 79.2 32 80 32C84.8 32 88.6667 32.8833 91.6 34.65C94.5333 36.4167 96 38.7667 96 41.7V48H78V48M16 28C13.8 28 11.9167 27.2167 10.35 25.65C8.78333 24.0833 8 22.2 8 20C8 17.7333 8.78333 15.8333 10.35 14.3C11.9167 12.7667 13.8 12 16 12C18.2667 12 20.1667 12.7667 21.7 14.3C23.2333 15.8333 24 17.7333 24 20C24 22.2 23.2333 24.0833 21.7 25.65C20.1667 27.2167 18.2667 28 16 28V28M80 28C77.8 28 75.9167 27.2167 74.35 25.65C72.7833 24.0833 72 22.2 72 20C72 17.7333 72.7833 15.8333 74.35 14.3C75.9167 12.7667 77.8 12 80 12C82.2667 12 84.1667 12.7667 85.7 14.3C87.2333 15.8333 88 17.7333 88 20C88 22.2 87.2333 24.0833 85.7 25.65C84.1667 27.2167 82.2667 28 80 28V28M48 24C44.6667 24 41.8333 22.8333 39.5 20.5C37.1667 18.1667 36 15.3333 36 12C36 8.6 37.1667 5.75 39.5 3.45C41.8333 1.15 44.6667 0 48 0C51.4 0 54.25 1.15 56.55 3.45C58.85 5.75 60 8.6 60 12C60 15.3333 58.85 18.1667 56.55 20.5C54.25 22.8333 51.4 24 48 24V24" fill="var(--fill-0, #E5E2E1)"/>
</g>
</svg>
