<svg preserveAspectRatio="none" width="100%" height="100%" overflow="visible" style="display: block;" viewBox="0 0 38 35.8" fill="none" xmlns="http://www.w3.org/2000/svg">
<g id="Overlay">
<rect width="38" height="35.8" rx="12" fill="var(--fill-0, #F7BD48)" fill-opacity="0.1"/>
<path id="Icon" d="M26.8 27.8L22.6 23.65C22.0167 23.8333 21.4292 23.9708 20.8375 24.0625C20.2458 24.1542 19.6333 24.2 19 24.2C16.4833 24.2 14.2417 23.5042 12.275 22.1125C10.3083 20.7208 8.88333 18.9167 8 16.7C8.35 15.8167 8.79167 14.9958 9.325 14.2375C9.85833 13.4792 10.4667 12.8 11.15 12.2L8.4 9.4L9.8 8L28.2 26.4L26.8 27.8V27.8M19 21.2C19.1833 21.2 19.3542 21.1917 19.5125 21.175C19.6708 21.1583 19.8417 21.125 20.025 21.075L14.625 15.675C14.575 15.8583 14.5417 16.0292 14.525 16.1875C14.5083 16.3458 14.5 16.5167 14.5 16.7C14.5 17.95 14.9375 19.0125 15.8125 19.8875C16.6875 20.7625 17.75 21.2 19 21.2V21.2M26.3 21.65L23.125 18.5C23.2417 18.2167 23.3333 17.9292 23.4 17.6375C23.4667 17.3458 23.5 17.0333 23.5 16.7C23.5 15.45 23.0625 14.3875 22.1875 13.5125C21.3125 12.6375 20.25 12.2 19 12.2C18.6667 12.2 18.3542 12.2333 18.0625 12.3C17.7708 12.3667 17.4833 12.4667 17.2 12.6L14.65 10.05C15.3333 9.76667 16.0333 9.55417 16.75 9.4125C17.4667 9.27083 18.2167 9.2 19 9.2C21.5167 9.2 23.7583 9.89583 25.725 11.2875C27.6917 12.6792 29.1167 14.4833 30 16.7C29.6167 17.6833 29.1125 18.5958 28.4875 19.4375C27.8625 20.2792 27.1333 21.0167 26.3 21.65V21.65M21.675 17.05L18.675 14.05C19.1417 13.9667 19.5708 14.0042 19.9625 14.1625C20.3542 14.3208 20.6917 14.55 20.975 14.85C21.2583 15.15 21.4625 15.4958 21.5875 15.8875C21.7125 16.2792 21.7417 16.6667 21.675 17.05V17.05" fill="var(--fill-0, #F7BD48)"/>
</g>
</svg>
