<svg preserveAspectRatio="none" width="100%" height="100%" overflow="visible" style="display: block;" viewBox="0 0 40 44" fill="none" xmlns="http://www.w3.org/2000/svg">
<g id="Overlay">
<rect width="40" height="44" fill="#5B461B" fill-opacity="0.3"/>
<path id="Icon" d="M18.95 25.55L24.6 19.9L23.175 18.475L18.95 22.7L16.85 20.6L15.425 22.025L18.95 25.55V25.55M20 32C17.6833 31.4167 15.7708 30.0875 14.2625 28.0125C12.7542 25.9375 12 23.6333 12 21.1V15L20 12L28 15V21.1C28 23.6333 27.2458 25.9375 25.7375 28.0125C24.2292 30.0875 22.3167 31.4167 20 32V32M20 29.9C21.7333 29.35 23.1667 28.25 24.3 26.6C25.4333 24.95 26 23.1167 26 21.1V16.375L20 14.125L14 16.375V21.1C14 23.1167 14.5667 24.95 15.7 26.6C16.8333 28.25 18.2667 29.35 20 29.9V29.9M20 22V22V22V22V22V22V22V22V22V22" fill="var(--fill-0, #F7BD48)"/>
</g>
</svg>
