<svg preserveAspectRatio="none" width="100%" height="100%" overflow="visible" style="display: block;" viewBox="0 0 133.333 106.667" fill="none" xmlns="http://www.w3.org/2000/svg">
<g id="Container">
<path id="Icon" d="M93.3333 53.3333V40H106.667V53.3333H93.3333V53.3333M93.3333 66.6667H80V53.3333H93.3333V66.6667V66.6667M93.3333 80V66.6667H106.667V80H93.3333V80M61.1667 26.6667L47.8333 13.3333H13.3333V13.3333V13.3333V93.3333V93.3333V93.3333H80V80H93.3333V93.3333H120V93.3333V93.3333V26.6667V26.6667V26.6667H93.3333V40H80V26.6667H61.1667V26.6667M13.3333 106.667C9.66667 106.667 6.52778 105.361 3.91667 102.75C1.30556 100.139 0 97 0 93.3333V13.3333C0 9.66667 1.30556 6.52778 3.91667 3.91667C6.52778 1.30556 9.66667 0 13.3333 0H53.3333L66.6667 13.3333H120C123.667 13.3333 126.806 14.6389 129.417 17.25C132.028 19.8611 133.333 23 133.333 26.6667V93.3333C133.333 97 132.028 100.139 129.417 102.75C126.806 105.361 123.667 106.667 120 106.667H13.3333V106.667M13.3333 93.3333V93.3333V93.3333V93.3333V26.6667V26.6667V26.6667V26.6667V13.3333V13.3333V13.3333V13.3333V93.3333V93.3333V93.3333V93.3333" fill="var(--fill-0, #F7BD48)" fill-opacity="0.05"/>
</g>
</svg>
