<svg preserveAspectRatio="none" width="100%" height="100%" overflow="visible" style="display: block;" viewBox="0 0 76 84" fill="none" xmlns="http://www.w3.org/2000/svg">
<g id="Container" opacity="0.1">
<path id="Icon" d="M56 84C50.4667 84 45.75 82.05 41.85 78.15C37.95 74.25 36 69.5333 36 64C36 58.4667 37.95 53.75 41.85 49.85C45.75 45.95 50.4667 44 56 44C61.5333 44 66.25 45.95 70.15 49.85C74.05 53.75 76 58.4667 76 64C76 69.5333 74.05 74.25 70.15 78.15C66.25 82.05 61.5333 84 56 84V84M62.7 73.5L65.5 70.7L58 63.2V52H54V64.8L62.7 73.5V73.5M8 80C5.8 80 3.91667 79.2167 2.35 77.65C0.783333 76.0833 0 74.2 0 72V16C0 13.8 0.783333 11.9167 2.35 10.35C3.91667 8.78333 5.8 8 8 8H24.7C25.4333 5.66667 26.8667 3.75 29 2.25C31.1333 0.75 33.4667 0 36 0C38.6667 0 41.05 0.75 43.15 2.25C45.25 3.75 46.6667 5.66667 47.4 8H64C66.2 8 68.0833 8.78333 69.65 10.35C71.2167 11.9167 72 13.8 72 16V41C70.8 40.1333 69.5333 39.4 68.2 38.8C66.8667 38.2 65.4667 37.6667 64 37.2V16V16V16H56V28H16V16H8V16V16V72V72V72H29.2C29.6667 73.4667 30.2 74.8667 30.8 76.2C31.4 77.5333 32.1333 78.8 33 80H8V80M36 16C37.1333 16 38.0833 15.6167 38.85 14.85C39.6167 14.0833 40 13.1333 40 12C40 10.8667 39.6167 9.91667 38.85 9.15C38.0833 8.38333 37.1333 8 36 8C34.8667 8 33.9167 8.38333 33.15 9.15C32.3833 9.91667 32 10.8667 32 12C32 13.1333 32.3833 14.0833 33.15 14.85C33.9167 15.6167 34.8667 16 36 16V16" fill="var(--fill-0, #F7BD48)"/>
</g>
</svg>
