<svg preserveAspectRatio="none" width="100%" height="100%" overflow="visible" style="display: block;" viewBox="0 0 44 40" fill="none" xmlns="http://www.w3.org/2000/svg">
<g id="Overlay">
<rect width="44" height="40" fill="#5B461B" fill-opacity="0.3"/>
<path id="Icon" d="M22 25C22.2833 25 22.5208 24.9042 22.7125 24.7125C22.9042 24.5208 23 24.2833 23 24C23 23.7167 22.9042 23.4792 22.7125 23.2875C22.5208 23.0958 22.2833 23 22 23C21.7167 23 21.4792 23.0958 21.2875 23.2875C21.0958 23.4792 21 23.7167 21 24C21 24.2833 21.0958 24.5208 21.2875 24.7125C21.4792 24.9042 21.7167 25 22 25V25M22 21C22.2833 21 22.5208 20.9042 22.7125 20.7125C22.9042 20.5208 23 20.2833 23 20C23 19.7167 22.9042 19.4792 22.7125 19.2875C22.5208 19.0958 22.2833 19 22 19C21.7167 19 21.4792 19.0958 21.2875 19.2875C21.0958 19.4792 21 19.7167 21 20C21 20.2833 21.0958 20.5208 21.2875 20.7125C21.4792 20.9042 21.7167 21 22 21V21M22 17C22.2833 17 22.5208 16.9042 22.7125 16.7125C22.9042 16.5208 23 16.2833 23 16C23 15.7167 22.9042 15.4792 22.7125 15.2875C22.5208 15.0958 22.2833 15 22 15C21.7167 15 21.4792 15.0958 21.2875 15.2875C21.0958 15.4792 21 15.7167 21 16C21 16.2833 21.0958 16.5208 21.2875 16.7125C21.4792 16.9042 21.7167 17 22 17V17M30 28H14C13.45 28 12.9792 27.8042 12.5875 27.4125C12.1958 27.0208 12 26.55 12 26V22C12.55 22 13.0208 21.8042 13.4125 21.4125C13.8042 21.0208 14 20.55 14 20C14 19.45 13.8042 18.9792 13.4125 18.5875C13.0208 18.1958 12.55 18 12 18V14C12 13.45 12.1958 12.9792 12.5875 12.5875C12.9792 12.1958 13.45 12 14 12H30C30.55 12 31.0208 12.1958 31.4125 12.5875C31.8042 12.9792 32 13.45 32 14V18C31.45 18 30.9792 18.1958 30.5875 18.5875C30.1958 18.9792 30 19.45 30 20C30 20.55 30.1958 21.0208 30.5875 21.4125C30.9792 21.8042 31.45 22 32 22V26C32 26.55 31.8042 27.0208 31.4125 27.4125C31.0208 27.8042 30.55 28 30 28V28M30 26V26V26V23.45C29.3833 23.0833 28.8958 22.5958 28.5375 21.9875C28.1792 21.3792 28 20.7167 28 20C28 19.2833 28.1792 18.6208 28.5375 18.0125C28.8958 17.4042 29.3833 16.9167 30 16.55V14V14V14H14V14V14V16.55C14.6167 16.9167 15.1042 17.4042 15.4625 18.0125C15.8208 18.6208 16 19.2833 16 20C16 20.7167 15.8208 21.3792 15.4625 21.9875C15.1042 22.5958 14.6167 23.0833 14 23.45V26V26V26H30V26M22 20V20V20V20V20V20V20V20V20V20V20V20V20V20V20V20V20V20V20V20V20V20V20V20" fill="var(--fill-0, #F7BD48)"/>
</g>
</svg>
