<svg preserveAspectRatio="none" width="100%" height="100%" overflow="visible" style="display: block;" viewBox="0 0 200 190" fill="none" xmlns="http://www.w3.org/2000/svg">
<g id="Container" opacity="0.05">
<path id="Icon" d="M68.5 148.25L100 129.25L131.5 148.5L123.25 112.5L151 88.5L114.5 85.25L100 51.25L85.5 85L49 88.25L76.75 112.5L68.5 148.25V148.25M38.25 190L54.5 119.75L0 72.5L72 66.25L100 0L128 66.25L200 72.5L145.5 119.75L161.75 190L100 152.75L38.25 190V190M100 102.5V102.5V102.5V102.5V102.5V102.5V102.5V102.5V102.5V102.5V102.5V102.5" fill="var(--fill-0, #E5E2E1)"/>
</g>
</svg>
